<svg xmlns="http://www.w3.org/2000/svg" xmlns:xlink="http://www.w3.org/1999/xlink" width="45" height="33" viewBox="0 0 45 33">
    <defs>
        <rect id="a" width="149" height="141" rx="8"/>
    </defs>
    <g fill="none" fill-rule="evenodd">
        <path fill="#FFF" d="M-289-925h620V345h-620z"/>
        <use fill="#FCFCFC" transform="translate(-53 -30)" xlink:href="#a"/>
        <path fill="#836CC4" fill-opacity=".38" d="M5.5 21H39v6.5a5 5 0 0 1-5 5H10.5a5 5 0 0 1-5-5V21z"/>
        <path fill="#473088" fill-rule="nonzero" d="M35.41 32.785H8.615c-2.145 0-3.89-1.55-3.89-3.45v-12.5a.75.75 0 1 1 1.5 0v12.5c0 1.075 1.07 1.95 2.39 1.95H35.41c1.295 0 2.39-.895 2.39-1.95V22.54a.75.75 0 1 1 1.5 0v6.795c0 1.9-1.745 3.45-3.89 3.45z"/>
        <path fill="#473088" fill-rule="nonzero" d="M41.5 17.5H2.55A2.555 2.555 0 0 1 0 14.94v-.21a2.555 2.555 0 0 1 2.55-2.55H41.5a2.555 2.555 0 0 1 2.55 2.55v.21a2.555 2.555 0 0 1-2.55 2.56zM2.55 13.68c-.58 0-1.05.47-1.05 1.05v.21A1.05 1.05 0 0 0 2.55 16H41.5c.58 0 1.05-.47 1.05-1.05v-.21a1.05 1.05 0 0 0-1.05-1.05l-38.95-.01zM22 28a.75.75 0 0 1-.75-.75v-8.545a.75.75 0 1 1 1.5 0v8.54A.75.75 0 0 1 22 28zM30.415 29.46a.75.75 0 0 1-.75-.75v-8.54a.75.75 0 1 1 1.5 0v8.54a.75.75 0 0 1-.75.75zM13.79 29.46a.75.75 0 0 1-.75-.75v-8.54a.75.75 0 1 1 1.5 0v8.54a.75.75 0 0 1-.75.75z"/>
        <path fill="#473088" fill-rule="nonzero" d="M32.28 0H12.97c-1.605 0-2.905 2-2.905 4.455v8.4a1 1 0 0 1 .65.24 1.03 1.03 0 0 1 .225-.025c.122 0 .244.018.36.055a.89.89 0 0 1 .265-.245V4.455c0-1.345.63-2.455 1.405-2.455h19.31c.775 0 1.41 1.09 1.41 2.435v8.205a.915.915 0 0 1 .345.285h.12c.155-.002.309.03.45.095a1.03 1.03 0 0 1 .585-.185v-8.38C35.19 2 33.885 0 32.28 0z"/>
    </g>
</svg>
