<svg xmlns="http://www.w3.org/2000/svg" xmlns:xlink="http://www.w3.org/1999/xlink" width="42" height="33" viewBox="0 0 42 33">
    <defs>
        <rect id="a" width="149" height="141" rx="8"/>
    </defs>
    <g fill="none" fill-rule="evenodd">
        <path fill="#FFF" d="M-291-716h620V554h-620z"/>
        <use fill="#FCFCFC" transform="translate(-55 -31)" xlink:href="#a"/>
        <path fill="#836CC4" fill-opacity=".38" d="M1 18h39.5v9.5a5 5 0 0 1-5 5H6a5 5 0 0 1-5-5V18z"/>
        <path fill="#473088" fill-rule="nonzero" d="M37.315 33H4.69A4.695 4.695 0 0 1 0 28.315V4.69A4.695 4.695 0 0 1 4.69 0h32.625A4.695 4.695 0 0 1 42 4.69v5.06a.75.75 0 1 1-1.5 0V4.69a3.19 3.19 0 0 0-3.185-3.19H4.69A3.19 3.19 0 0 0 1.5 4.69v23.625A3.19 3.19 0 0 0 4.69 31.5h32.625a3.19 3.19 0 0 0 3.185-3.185V18.75a.75.75 0 1 1 1.5 0v9.565A4.695 4.695 0 0 1 37.315 33z"/>
        <path fill="#473088" fill-rule="nonzero" d="M41.25 23.25h-9a.75.75 0 1 1 0-1.5h9a.75.75 0 1 1 0 1.5zM32.25 28.5a.76.76 0 0 1-.57-.26l-4.5-5.25a.758.758 0 1 1 1.14-1l4.5 5.25a.75.75 0 0 1-.57 1.26z"/>
        <path fill="#473088" fill-rule="nonzero" d="M32.25 28.5a.75.75 0 0 1-.75-.75v-10.5a.75.75 0 1 1 1.5 0v10.5a.75.75 0 0 1-.75.75z"/>
        <path fill="#473088" fill-rule="nonzero" d="M27.75 23.25a.75.75 0 0 1-.57-1.25l4.5-5.25a.758.758 0 0 1 1.14 1L28.32 23a.76.76 0 0 1-.57.25zM21 25.5a3 3 0 1 1 0-6 3 3 0 0 1 0 6zm0-4.5a1.5 1.5 0 1 0 0 3 1.5 1.5 0 0 0 0-3zM9.75 11.25h-9a.75.75 0 1 1 0-1.5h9a.75.75 0 1 1 0 1.5zM14.25 11.25a.76.76 0 0 1-.57-.25l-4.5-5.25a.758.758 0 0 1 1.14-1l4.5 5.25a.75.75 0 0 1-.57 1.25z"/>
        <path fill="#473088" fill-rule="nonzero" d="M9.75 16.5a.75.75 0 0 1-.75-.75V5.25a.75.75 0 0 1 1.5 0v10.5a.75.75 0 0 1-.75.75z"/>
        <path fill="#473088" fill-rule="nonzero" d="M9.75 16.5a.75.75 0 0 1-.57-1.24l4.5-5.25a.758.758 0 0 1 1.14 1l-4.5 5.25a.76.76 0 0 1-.57.24zM21 13.5a3 3 0 1 1 0-6 3 3 0 0 1 0 6zM21 9a1.5 1.5 0 1 0 0 3 1.5 1.5 0 0 0 0-3z"/>
    </g>
</svg>
