<?xml version="1.0" encoding="UTF-8"?>
<svg width="36px" height="36px" viewBox="0 0 36 36" version="1.1" xmlns="http://www.w3.org/2000/svg" xmlns:xlink="http://www.w3.org/1999/xlink">
    <!-- Generator: Sketch 51.2 (57519) - http://www.bohemiancoding.com/sketch -->
    <title>Medium_White</title>
    <desc>Created with Sketch.</desc>
    <defs></defs>
    <g id="Page-1" stroke="none" stroke-width="1" fill="none" fill-rule="evenodd">
        <g id="Visual-I" transform="translate(-221.000000, -1028.000000)" fill="#3B1878">
            <g id="Medium" transform="translate(221.000000, 1028.000000)">
                <path d="M0,18 C0,8.05887401 8.05887401,0 18,0 C27.941126,0 36,8.05887401 36,18 C36,27.941126 27.941126,36 18,36 C8.05887401,36 0,27.941126 0,18 Z M15.1053575,13.1526753 L9.34234514,10.3052857 C9.29303669,10.2808918 9.24603059,10.26939 9.20356521,10.26939 C9.14306484,10.26939 9.09190173,10.2928991 9.05589569,10.3358097 C9.0206571,10.3777723 9,10.4384411 9,10.5143403 L9,22.7382214 C9,22.9462648 9.15406491,23.1925423 9.34234514,23.2855678 L14.6680408,25.916888 C14.7420355,25.9534789 14.8125127,25.9707948 14.8762107,25.9707948 C15.0556653,25.9707948 15.1815266,25.8335948 15.1815266,25.6033061 L15.1815266,13.2745185 C15.1815266,13.22295 15.1520438,13.1757421 15.1053575,13.1526753 Z M21.8554341,23.3559689 L27.0305184,25.9128434 C27.3129387,26.0523817 27.5440041,25.9112635 27.5440041,25.5991983 L27.5440041,14.2215208 L21.8554341,23.3559689 Z M15.7278846,14.0676368 L15.7278846,20.3321974 L21.3631171,23.1164535 L15.7278846,14.0676368 Z M27.4085498,13.1230993 L21.5342577,10.2207285 C21.5075889,10.2075204 21.4785539,10.2013903 21.4495188,10.200632 C21.4476002,10.2005688 21.4457455,10.2 21.4438269,10.2 C21.3723904,10.2 21.3012737,10.2354533 21.2627734,10.2971965 L17.6420883,16.1112279 L21.6838458,22.6014006 L27.4648932,13.3184402 C27.5077423,13.2495558 27.481713,13.1592478 27.4085498,13.1230993 Z" id="Combined-Shape"></path>
            </g>
        </g>
    </g>
</svg>