<?xml version="1.0" encoding="UTF-8"?>
<svg width="36px" height="36px" viewBox="0 0 36 36" version="1.1" xmlns="http://www.w3.org/2000/svg" xmlns:xlink="http://www.w3.org/1999/xlink">
    <!-- Generator: Sketch 51.2 (57519) - http://www.bohemiancoding.com/sketch -->
    <title>Telegram_White</title>
    <desc>Created with Sketch.</desc>
    <defs></defs>
    <g id="Page-1" stroke="none" stroke-width="1" fill="none" fill-rule="evenodd">
        <g id="Visual-I" transform="translate(-410.000000, -1028.000000)" fill="#3B1878">
            <g id="Telegram" transform="translate(410.000000, 1028.000000)">
                <path d="M15.0063,21.66105 L14.7,26.25 C15.15,26.25 15.348825,26.0442 15.6,25.8 L17.762033,23.6976932 L22.26,27.02085 C23.087775,27.477585 23.68521,27.24111 23.8914,26.252325 L26.84415,12.337875 C27.14646,11.125845 26.382135,10.576125 25.59024,10.935645 L8.25174,17.621295 C7.068225,18.096 7.075125,18.756285 8.03601,19.050495 L12.48546,20.43924 L22.78641,13.94049 C23.272695,13.645605 23.719005,13.8041415 23.35269,14.12925 L15.0064191,21.6611218 Z M18,36 C8.0588745,36 0,27.9411255 0,18 C0,8.0588745 8.0588745,0 18,0 C27.9411255,0 36,8.0588745 36,18 C36,27.9411255 27.9411255,36 18,36 Z" id="Combined-Shape"></path>
            </g>
        </g>
    </g>
</svg>