<svg xmlns="http://www.w3.org/2000/svg" xmlns:xlink="http://www.w3.org/1999/xlink" width="42" height="33" viewBox="0 0 42 33">
    <defs>
        <rect id="a" width="149" height="141" rx="8"/>
    </defs>
    <g fill="none" fill-rule="evenodd">
        <path fill="#FFF" d="M-473-716h620V554h-620z"/>
        <use fill="#FCFCFC" transform="translate(-55 -31)" xlink:href="#a"/>
        <path fill="#836CC4" fill-opacity=".38" d="M.5 17h41v11.95a4 4 0 0 1-4.049 4l-33-.402a4 4 0 0 1-3.951-4V17z"/>
        <path fill="#473088" fill-rule="nonzero" d="M37.315 33H4.69A4.695 4.695 0 0 1 0 28.315V18.75a.75.75 0 1 1 1.5 0v9.565A3.19 3.19 0 0 0 4.69 31.5h32.625a3.19 3.19 0 0 0 3.185-3.185V4.69a3.19 3.19 0 0 0-3.185-3.19H4.69A3.19 3.19 0 0 0 1.5 4.69v5.06a.75.75 0 1 1-1.5 0V4.69A4.695 4.695 0 0 1 4.69 0h32.625A4.695 4.695 0 0 1 42 4.69v23.625A4.695 4.695 0 0 1 37.315 33z"/>
        <path fill="#473088" fill-rule="nonzero" d="M32.25 24a5.25 5.25 0 1 1 0-10.5 5.25 5.25 0 0 1 0 10.5zm0-9a3.75 3.75 0 1 0 0 7.5 3.75 3.75 0 0 0 0-7.5z"/>
        <path fill="#473088" fill-rule="nonzero" d="M27.75 28.5a.75.75 0 0 1-.75-.75v-9a.75.75 0 1 1 1.5 0v9a.75.75 0 0 1-.75.75zM36.75 28.5a.75.75 0 0 1-.75-.75v-9a.75.75 0 1 1 1.5 0v9a.75.75 0 0 1-.75.75z"/>
        <path fill="#473088" fill-rule="nonzero" d="M27.75 28.5a.755.755 0 0 1-.751-.75c0-.2.08-.39.221-.53l4.5-4.5a.75.75 0 0 1 1.06 1.06l-4.5 4.5a.755.755 0 0 1-.53.22z"/>
        <path fill="#473088" fill-rule="nonzero" d="M36.75 28.5a.755.755 0 0 1-.53-.22l-4.5-4.5a.75.75 0 0 1 1.06-1.06l4.5 4.5a.745.745 0 0 1 0 1.06.755.755 0 0 1-.53.22zM14.25 10.5h-9a.75.75 0 1 1 0-1.5h9a.75.75 0 1 1 0 1.5zM23.25 15h-18a.75.75 0 1 1 0-1.5h18a.75.75 0 1 1 0 1.5zM23.25 19.5h-18a.75.75 0 1 1 0-1.5h18a.75.75 0 1 1 0 1.5zM23.25 24h-18a.75.75 0 1 1 0-1.5h18a.75.75 0 1 1 0 1.5zM27.75 10.5h-9a.75.75 0 1 1 0-1.5h9a.75.75 0 1 1 0 1.5z"/>
    </g>
</svg>
