<?xml version="1.0" encoding="UTF-8"?>
<svg width="36px" height="35px" viewBox="0 0 36 35" version="1.1" xmlns="http://www.w3.org/2000/svg" xmlns:xlink="http://www.w3.org/1999/xlink">
    <!-- Generator: Sketch 51.2 (57519) - http://www.bohemiancoding.com/sketch -->
    <title>Github_White</title>
    <desc>Created with Sketch.</desc>
    <defs></defs>
    <g id="Page-1" stroke="none" stroke-width="1" fill="none" fill-rule="evenodd">
        <g id="Visual-I" transform="translate(-269.000000, -1029.000000)">
            <g id="Github" transform="translate(269.000000, 1029.000000)">
                <path d="M18.0324298,0.131212919 C8.11100826,0.131212919 0.0657520661,8.08489286 0.0657520661,17.8970302 C0.0657520661,25.7465636 5.21375207,32.4060605 12.3524628,34.7552425 C13.2503802,34.9196999 13.5800331,34.3698413 13.5800331,33.9005933 C13.5800331,33.4769462 13.5633719,32.0774398 13.5556364,30.5929098 C8.55728926,31.6676201 7.50257851,28.4967393 7.50257851,28.4967393 C6.68528926,26.4432277 5.50770248,25.8971937 5.50770248,25.8971937 C3.87758678,24.7945344 5.63057851,24.8171878 5.63057851,24.8171878 C7.4347438,24.9422225 8.38472727,26.6479905 8.38472727,26.6479905 C9.98717355,29.364039 12.5878017,28.5788209 13.6130579,28.1248713 C13.774314,26.9769053 14.2399339,26.1925698 14.7537521,25.7492114 C10.7631074,25.2999689 6.56806612,23.7766046 6.56806612,16.9691254 C6.56806612,15.029469 7.26991736,13.444617 8.41923967,12.2004478 C8.23269421,11.7526764 7.61771901,9.94599807 8.59328926,7.49884772 C8.59328926,7.49884772 10.1020165,7.02136214 13.535405,9.31994181 C14.968562,8.92630306 16.5055537,8.72889528 18.0324298,8.7221287 C19.5593058,8.72889528 21.0974876,8.92630306 22.5333223,9.31994181 C25.9625455,7.02136214 27.4691901,7.49884772 27.4691901,7.49884772 C28.4471405,9.94599807 27.8318678,11.7526764 27.6453223,12.2004478 C28.7973223,13.444617 29.4944132,15.029469 29.4944132,16.9691254 C29.4944132,23.7927856 25.2913388,25.2952618 21.2905785,25.7350898 C21.9350083,26.2864194 22.5092231,27.3676021 22.5092231,29.0251214 C22.5092231,31.4019581 22.4883967,33.3151366 22.4883967,33.9005933 C22.4883967,34.3733717 22.8118017,34.9273491 23.7225124,34.7528889 C30.8573554,32.4010591 35.9988099,25.7439158 35.9988099,17.8970302 C35.9988099,8.08489286 27.9547438,0.131212919 18.0324298,0.131212919" id="Fill-51" fill="#3B1878"></path>
                <path d="M6.87064463,25.6391808 C6.83107438,25.7277348 6.69064463,25.7539186 6.56271074,25.6933135 C6.43239669,25.6353562 6.35920661,25.5150287 6.40145455,25.4264747 C6.44013223,25.3355671 6.5808595,25.3105601 6.71087603,25.370871 C6.8414876,25.4291225 6.91586777,25.5506268 6.87064463,25.6391808" id="Fill-52" fill="#FFFFFE"></path>
                <path d="M7.59838017,26.4417567 C7.51269421,26.5203079 7.34519008,26.4838272 7.23153719,26.3596751 C7.11401653,26.2358171 7.092,26.0701829 7.17887603,25.9904549 C7.26723967,25.9119036 7.42968595,25.9486786 7.54750413,26.0725365 C7.66502479,26.1978654 7.68793388,26.3623229 7.59838017,26.4417567" id="Fill-53" fill="#FFFFFE"></path>
                <path d="M8.30677686,27.4649821 C8.19669421,27.5405913 8.01669421,27.4696893 7.90542149,27.3117042 C7.79533884,27.1537192 7.79533884,26.9642548 7.90780165,26.8883513 C8.0193719,26.8124479 8.19669421,26.8807022 8.30945455,27.0375104 C8.41923967,27.1978491 8.41923967,27.3876077 8.30677686,27.4649821" id="Fill-54" fill="#FFFFFE"></path>
                <path d="M9.27728926,28.453492 C9.17880992,28.5608748 8.96905785,28.5320432 8.81553719,28.3855319 C8.65844628,28.2422568 8.61471074,28.0389651 8.7134876,27.9315823 C8.81315702,27.8239053 9.02409917,27.8542079 9.17880992,27.9995424 C9.33471074,28.1425232 9.38231405,28.347286 9.27728926,28.453492" id="Fill-55" fill="#FFFFFE"></path>
                <path d="M10.6161322,29.027475 C10.5726942,29.1666313 10.3706777,29.2298841 10.1671736,29.17075 C9.96396694,29.1098508 9.83097521,28.9468643 9.87203306,28.806237 C9.91428099,28.6661981 10.1171901,28.6002975 10.3221818,28.6635503 C10.5250909,28.7241554 10.6583802,28.8859651 10.6161322,29.027475" id="Fill-56" fill="#FFFFFE"></path>
                <path d="M12.0864793,29.1339751 C12.0915372,29.2804864 11.9189752,29.4019907 11.7053554,29.4043443 C11.4905455,29.4093457 11.3167934,29.2907834 11.3144132,29.1466257 C11.3144132,28.9986434 11.4831074,28.8783159 11.6979174,28.8747855 C11.9115372,28.8706667 12.0864793,28.9883464 12.0864793,29.1339751" id="Fill-57" fill="#FFFFFE"></path>
                <path d="M13.4547769,28.903617 C13.4803636,29.0465979 13.3319008,29.1934034 13.1197686,29.2322377 C12.9112066,29.2701894 12.7181157,29.1819296 12.6916364,29.0401255 C12.6657521,28.8936142 12.8168926,28.7468088 13.025157,28.708857 C13.2375868,28.6723763 13.4277025,28.7582825 13.4547769,28.903617" id="Fill-58" fill="#FFFFFE"></path>
            </g>
        </g>
    </g>
</svg>